<svg width="16" height="16" viewBox="0 0 16 16" fill="none" xmlns="http://www.w3.org/2000/svg">
<path fill-rule="evenodd" clip-rule="evenodd" d="M5.12777 16C3.34473 16 2.69816 15.8143 2.04631 15.4657C1.39446 15.1171 0.88288 14.6055 0.534265 13.9537C0.185651 13.3018 0 12.6553 0 10.8722L0 5.12777C0 3.34473 0.185651 2.69816 0.534265 2.04631C0.88288 1.39446 1.39446 0.88288 2.04631 0.534265C2.69816 0.185651 3.34473 0 5.12777 0H10.8722C12.6553 0 13.3018 0.185651 13.9537 0.534265C14.6055 0.88288 15.1171 1.39446 15.4657 2.04631C15.8143 2.69816 16 3.34473 16 5.12777V10.8722C16 12.6553 15.8143 13.3018 15.4657 13.9537C15.1171 14.6055 14.6055 15.1171 13.9537 15.4657C13.3018 15.8143 12.6553 16 10.8722 16H5.12777Z" fill="#8300B9"/>
<path fill-rule="evenodd" clip-rule="evenodd" d="M8.5 7.5H12C12.2761 7.5 12.5 7.72386 12.5 8C12.5 8.27614 12.2761 8.5 12 8.5H8.5V12C8.5 12.2761 8.27614 12.5 8 12.5C7.72386 12.5 7.5 12.2761 7.5 12V8.5H4C3.72386 8.5 3.5 8.27614 3.5 8C3.5 7.72386 3.72386 7.5 4 7.5H7.5V4C7.5 3.72386 7.72386 3.5 8 3.5C8.27614 3.5 8.5 3.72386 8.5 4V7.5Z" fill="#F4F1F5"/>
</svg>
