<svg width="48" height="48" viewBox="0 0 48 48" fill="none" xmlns="http://www.w3.org/2000/svg">
<g opacity="0.7">
<path fill-rule="evenodd" clip-rule="evenodd" d="M24 2C36.1503 2 46 11.8497 46 24C46 36.1503 36.1503 46 24 46C11.8497 46 2 36.1503 2 24C2 11.8497 11.8497 2 24 2ZM24 6C14.0589 6 6 14.0589 6 24C6 33.9411 14.0589 42 24 42C33.9411 42 42 33.9411 42 24C42 14.0589 33.9411 6 24 6ZM24 10C25.1046 10 26 10.8954 26 12V23.0218L34.2279 29.4213C35.0998 30.0994 35.2568 31.356 34.5787 32.2279C33.9006 33.0998 32.644 33.2568 31.7721 32.5787L22.7721 25.5787C22.2849 25.1998 22 24.6172 22 24V12C22 10.8954 22.8954 10 24 10Z" fill="#FFA372"/>
</g>
</svg>
