<svg width="48" height="50" viewBox="0 0 48 50" fill="none" xmlns="http://www.w3.org/2000/svg">
<path fill-rule="evenodd" clip-rule="evenodd" d="M25.0279 36.5682L16.1309 43.3697C14.1174 44.9089 11.2201 43.4711 11.2159 40.9402L11.2083 36.3081C7.06576 35.312 4 31.5716 4 27.1281V15.4401C4 10.2282 8.21208 6 13.4118 6H34.5882C39.7879 6 44 10.2282 44 15.4401V27.1281C44 32.34 39.7879 36.5682 34.5882 36.5682H25.0279ZM15.2128 39.0366L23.1363 32.9793C23.4851 32.7127 23.9119 32.5682 24.351 32.5682H34.5882C37.5754 32.5682 40 30.1343 40 27.1281V15.4401C40 12.4339 37.5754 10 34.5882 10H13.4118C10.4246 10 8 12.4339 8 15.4401V27.1281C8 30.0777 10.3381 32.4859 13.2603 32.5661C14.3418 32.5958 15.2036 33.4802 15.2054 34.5621L15.2128 39.0366Z" fill="#FFA372"/>
</svg>
