<svg width="42" height="42" viewBox="0 0 42 42" fill="none" xmlns="http://www.w3.org/2000/svg">
<rect x="0.5" y="0.5" width="41" height="41" rx="5.81579" stroke="#FC5A5A"/>
<path fill-rule="evenodd" clip-rule="evenodd" d="M16.6633 13.7L17.3354 11.6838C17.4715 11.2754 17.8536 11 18.2841 11H23.6841C24.1145 11 24.4966 11.2754 24.6328 11.6838L25.3048 13.7H29.984C30.5363 13.7 30.984 14.1477 30.984 14.7C30.984 15.2523 30.5363 15.7 29.984 15.7H29.127L28.3931 28.1762C28.2998 29.7619 26.9867 31 25.3983 31H16.5699C14.9815 31 13.6683 29.7619 13.5751 28.1762L12.8412 15.7H12C11.4477 15.7 11 15.2523 11 14.7C11 14.1477 11.4477 13.7 12 13.7H16.6633ZM18.7715 13.7H23.1966L22.9633 13H19.0048L18.7715 13.7ZM27.1235 15.7H14.8446L15.5716 28.0587C15.6027 28.5873 16.0404 29 16.5699 29H25.3983C25.9278 29 26.3655 28.5873 26.3966 28.0587L27.1235 15.7ZM22.686 18.2376C22.7205 17.6864 23.1953 17.2675 23.7465 17.3019C24.2977 17.3364 24.7166 17.8112 24.6821 18.3624L24.2321 25.5624C24.1977 26.1136 23.7229 26.5325 23.1717 26.498C22.6205 26.4636 22.2016 25.9888 22.236 25.4376L22.686 18.2376ZM19.7321 25.4376C19.7666 25.9888 19.3476 26.4636 18.7964 26.498C18.2452 26.5325 17.7705 26.1136 17.736 25.5624L17.286 18.3624C17.2516 17.8112 17.6705 17.3364 18.2217 17.3019C18.7729 17.2675 19.2477 17.6864 19.2821 18.2376L19.7321 25.4376Z" fill="#FC5A5A"/>
</svg>
