<svg width="24" height="24" viewBox="0 0 24 24" fill="none" xmlns="http://www.w3.org/2000/svg">
<rect width="24" height="24" rx="6.31579" fill="#8300B9"/>
<path fill-rule="evenodd" clip-rule="evenodd" d="M15.3496 9.48348L15.9866 8.84648L14.5825 7.44244L13.9455 8.07945L15.3496 9.48348ZM14.5456 10.2874L13.1415 8.88333L7.88928 14.1356L7.56613 15.8628L9.29332 15.5396L14.5456 10.2874ZM16.8244 8.07657C17.2496 8.50179 17.2496 9.1912 16.8244 9.61641L9.97284 16.4679C9.89179 16.549 9.78812 16.6036 9.67544 16.6247L6.95936 17.1329C6.56661 17.2064 6.22262 16.8624 6.2961 16.4696L6.80427 13.7536C6.82535 13.6409 6.88001 13.5372 6.96106 13.4562L13.8126 6.60463C14.2378 6.17942 14.9272 6.17942 15.3524 6.60463L16.8244 8.07657ZM16.5775 17.1429H11.9948C11.2404 17.1429 11.2404 16 11.9948 16H16.5775C17.3319 16 17.3319 17.1429 16.5775 17.1429Z" fill="white"/>
</svg>
