<svg width="16" height="16" viewBox="0 0 16 16" fill="none" xmlns="http://www.w3.org/2000/svg">
<path fill-rule="evenodd" clip-rule="evenodd" d="M8 15.3334C3.94992 15.3334 0.666672 12.0501 0.666672 8.00002C0.666672 3.94993 3.94992 0.666687 8 0.666687C12.0501 0.666687 15.3333 3.94993 15.3333 8.00002C15.3333 12.0501 12.0501 15.3334 8 15.3334ZM8.00001 14C11.3137 14 14 11.3137 14 8.00002C14 4.68631 11.3137 2.00002 8.00001 2.00002C4.6863 2.00002 2.00001 4.68631 2.00001 8.00002C2.00001 11.3137 4.6863 14 8.00001 14ZM4.93836 11.2133C4.64358 10.9927 4.58344 10.5749 4.80404 10.2801C5.02465 9.98533 5.44245 9.9252 5.73724 10.1458C6.9525 11.0552 9.08554 11.061 10.2613 10.1521C10.5526 9.92692 10.9713 9.98053 11.1965 10.2718C11.4217 10.5631 11.3681 10.9818 11.0768 11.207C9.42227 12.486 6.6289 12.4784 4.93836 11.2133ZM5.66667 7.33335C5.11439 7.33335 4.66667 6.88564 4.66667 6.33335C4.66667 5.78107 5.11439 5.33335 5.66667 5.33335C6.21896 5.33335 6.66667 5.78107 6.66667 6.33335C6.66667 6.88564 6.21896 7.33335 5.66667 7.33335ZM10.3333 7.33335C9.78105 7.33335 9.33334 6.88564 9.33334 6.33335C9.33334 5.78107 9.78105 5.33335 10.3333 5.33335C10.8856 5.33335 11.3333 5.78107 11.3333 6.33335C11.3333 6.88564 10.8856 7.33335 10.3333 7.33335Z" fill="#8300B9"/>
</svg>
