<svg width="16" height="16" viewBox="0 0 16 16" fill="none" xmlns="http://www.w3.org/2000/svg">
<mask id="path-1-outside-1" maskUnits="userSpaceOnUse" x="1.80029" y="1.79999" width="12" height="12" fill="black">
<rect fill="white" x="1.80029" y="1.79999" width="12" height="12"/>
<path fill-rule="evenodd" clip-rule="evenodd" d="M12.7689 3.9898L12.0104 3.23132C11.4353 2.65621 10.5029 2.65621 9.92776 3.23132L8.03156 5.12752C7.45645 5.70263 7.45645 6.63507 8.03156 7.21017L8.13277 7.31138L7.31166 8.13249L7.21048 8.03131C6.63537 7.45621 5.70294 7.45621 5.12783 8.03131L3.23162 9.92752C2.65652 10.5026 2.65652 11.4351 3.23162 12.0102L3.99011 12.7687C4.56521 13.3438 5.49765 13.3438 6.07276 12.7687L7.96896 10.8724C8.54407 10.2973 8.54407 9.3649 7.96896 8.7898L7.87734 8.69818L8.69845 7.87707L8.79004 7.96866C9.36515 8.54377 10.2976 8.54377 10.8727 7.96866L12.7689 6.07245C13.344 5.49734 13.344 4.56491 12.7689 3.9898ZM9.26419 7.31133L9.35582 7.40297C9.61851 7.66566 10.0444 7.66566 10.3071 7.40297L12.2033 5.50676C12.466 5.24407 12.466 4.81817 12.2033 4.55548L11.4448 3.797C11.1821 3.53431 10.7562 3.53431 10.4935 3.797L8.59734 5.69321C8.33465 5.95589 8.33465 6.3818 8.59734 6.64448L8.6985 6.74565L9.3222 6.12195C9.49213 5.95201 9.73206 5.96613 9.88788 6.12195C10.0437 6.27778 10.0578 6.5177 9.88788 6.68764L9.26419 7.31133ZM6.74594 8.69821L6.1222 9.32195C5.95226 9.49189 5.96637 9.73181 6.1222 9.88764C6.27802 10.0435 6.51794 10.0576 6.68788 9.88764L7.31163 9.26389L7.40321 9.35548C7.6659 9.61817 7.6659 10.0441 7.40321 10.3068L5.50701 12.203C5.24432 12.4657 4.81842 12.4657 4.55573 12.203L3.79724 11.4445C3.53456 11.1818 3.53456 10.7559 3.79724 10.4932L5.69345 8.597C5.95614 8.33431 6.38204 8.33431 6.64473 8.597L6.74594 8.69821Z"/>
</mask>
<path fill-rule="evenodd" clip-rule="evenodd" d="M12.7689 3.9898L12.0104 3.23132C11.4353 2.65621 10.5029 2.65621 9.92776 3.23132L8.03156 5.12752C7.45645 5.70263 7.45645 6.63507 8.03156 7.21017L8.13277 7.31138L7.31166 8.13249L7.21048 8.03131C6.63537 7.45621 5.70294 7.45621 5.12783 8.03131L3.23162 9.92752C2.65652 10.5026 2.65652 11.4351 3.23162 12.0102L3.99011 12.7687C4.56521 13.3438 5.49765 13.3438 6.07276 12.7687L7.96896 10.8724C8.54407 10.2973 8.54407 9.3649 7.96896 8.7898L7.87734 8.69818L8.69845 7.87707L8.79004 7.96866C9.36515 8.54377 10.2976 8.54377 10.8727 7.96866L12.7689 6.07245C13.344 5.49734 13.344 4.56491 12.7689 3.9898ZM9.26419 7.31133L9.35582 7.40297C9.61851 7.66566 10.0444 7.66566 10.3071 7.40297L12.2033 5.50676C12.466 5.24407 12.466 4.81817 12.2033 4.55548L11.4448 3.797C11.1821 3.53431 10.7562 3.53431 10.4935 3.797L8.59734 5.69321C8.33465 5.95589 8.33465 6.3818 8.59734 6.64448L8.6985 6.74565L9.3222 6.12195C9.49213 5.95201 9.73206 5.96613 9.88788 6.12195C10.0437 6.27778 10.0578 6.5177 9.88788 6.68764L9.26419 7.31133ZM6.74594 8.69821L6.1222 9.32195C5.95226 9.49189 5.96637 9.73181 6.1222 9.88764C6.27802 10.0435 6.51794 10.0576 6.68788 9.88764L7.31163 9.26389L7.40321 9.35548C7.6659 9.61817 7.6659 10.0441 7.40321 10.3068L5.50701 12.203C5.24432 12.4657 4.81842 12.4657 4.55573 12.203L3.79724 11.4445C3.53456 11.1818 3.53456 10.7559 3.79724 10.4932L5.69345 8.597C5.95614 8.33431 6.38204 8.33431 6.64473 8.597L6.74594 8.69821Z" fill="#8300B9"/>
<path d="M12.0104 3.23132L11.869 3.37274V3.37274L12.0104 3.23132ZM12.7689 3.9898L12.9103 3.84838V3.84838L12.7689 3.9898ZM9.92776 3.23132L9.78634 3.0899V3.0899L9.92776 3.23132ZM8.03156 5.12752L8.17298 5.26895L8.03156 5.12752ZM8.03156 7.21017L8.17298 7.06875L8.03156 7.21017ZM8.13277 7.31138L8.27419 7.4528L8.41561 7.31138L8.27419 7.16996L8.13277 7.31138ZM7.31166 8.13249L7.17024 8.27391L7.31166 8.41533L7.45308 8.27391L7.31166 8.13249ZM7.21048 8.03131L7.06906 8.17274L7.21048 8.03131ZM5.12783 8.03131L5.26925 8.17274L5.12783 8.03131ZM3.23162 9.92752L3.0902 9.7861H3.0902L3.23162 9.92752ZM3.23162 12.0102L3.37305 11.8687H3.37305L3.23162 12.0102ZM3.99011 12.7687L3.84868 12.9101H3.84868L3.99011 12.7687ZM6.07276 12.7687L6.21418 12.9101L6.07276 12.7687ZM7.96896 8.7898L8.11038 8.64838L8.11038 8.64838L7.96896 8.7898ZM7.87734 8.69818L7.73592 8.55676L7.5945 8.69818L7.73592 8.8396L7.87734 8.69818ZM8.69845 7.87707L8.83987 7.73565L8.69845 7.59422L8.55703 7.73565L8.69845 7.87707ZM8.79004 7.96866L8.64862 8.11008L8.64862 8.11008L8.79004 7.96866ZM12.7689 6.07245L12.9103 6.21387L12.7689 6.07245ZM9.35582 7.40297L9.49725 7.26155L9.49724 7.26155L9.35582 7.40297ZM9.26419 7.31133L9.12277 7.16991L8.98134 7.31133L9.12277 7.45275L9.26419 7.31133ZM10.3071 7.40297L10.4485 7.54439L10.3071 7.40297ZM12.2033 5.50676L12.3447 5.64818L12.2033 5.50676ZM12.2033 4.55548L12.0619 4.6969V4.6969L12.2033 4.55548ZM11.4448 3.797L11.5862 3.65558V3.65558L11.4448 3.797ZM10.4935 3.797L10.3521 3.65558V3.65558L10.4935 3.797ZM8.59734 5.69321L8.45592 5.55178L8.59734 5.69321ZM8.59734 6.64448L8.45592 6.78591L8.59734 6.64448ZM8.6985 6.74565L8.55708 6.88707L8.6985 7.02849L8.83992 6.88707L8.6985 6.74565ZM9.3222 6.12195L9.18078 5.98053V5.98053L9.3222 6.12195ZM9.88788 6.68764L9.74646 6.54622V6.54622L9.88788 6.68764ZM6.1222 9.32195L5.98078 9.18053H5.98077L6.1222 9.32195ZM6.74594 8.69821L6.88736 8.83963L7.02878 8.69821L6.88736 8.55679L6.74594 8.69821ZM6.68788 9.88764L6.54646 9.74622H6.54646L6.68788 9.88764ZM7.31163 9.26389L7.45305 9.12247L7.31163 8.98105L7.17021 9.12247L7.31163 9.26389ZM7.40321 9.35548L7.54463 9.21406L7.54463 9.21406L7.40321 9.35548ZM7.40321 10.3068L7.54463 10.4482L7.40321 10.3068ZM5.50701 12.203L5.64843 12.3444L5.50701 12.203ZM4.55573 12.203L4.69715 12.0615H4.69715L4.55573 12.203ZM3.79724 11.4445L3.65582 11.5859H3.65582L3.79724 11.4445ZM3.79724 10.4932L3.65582 10.3518H3.65582L3.79724 10.4932ZM5.69345 8.597L5.55203 8.45557L5.69345 8.597ZM6.64473 8.597L6.78615 8.45557L6.64473 8.597ZM11.869 3.37274L12.6275 4.13122L12.9103 3.84838L12.1518 3.0899L11.869 3.37274ZM10.0692 3.37274C10.5662 2.87574 11.372 2.87574 11.869 3.37274L12.1518 3.0899C11.4986 2.43668 10.4396 2.43668 9.78634 3.0899L10.0692 3.37274ZM8.17298 5.26895L10.0692 3.37274L9.78634 3.0899L7.89014 4.9861L8.17298 5.26895ZM8.17298 7.06875C7.67598 6.57175 7.67598 5.76595 8.17298 5.26895L7.89014 4.9861C7.23692 5.63932 7.23692 6.69838 7.89014 7.3516L8.17298 7.06875ZM8.27419 7.16996L8.17298 7.06875L7.89014 7.3516L7.99135 7.4528L8.27419 7.16996ZM7.45308 8.27391L8.27419 7.4528L7.99135 7.16996L7.17024 7.99107L7.45308 8.27391ZM7.45308 7.99107L7.3519 7.88989L7.06906 8.17274L7.17024 8.27391L7.45308 7.99107ZM7.3519 7.88989C6.69869 7.23668 5.63962 7.23668 4.98641 7.88989L5.26925 8.17274C5.76625 7.67573 6.57206 7.67573 7.06906 8.17274L7.3519 7.88989ZM4.98641 7.88989L3.0902 9.7861L3.37305 10.0689L5.26925 8.17274L4.98641 7.88989ZM3.0902 9.7861C2.43699 10.4393 2.43699 11.4984 3.0902 12.1516L3.37305 11.8687C2.87604 11.3717 2.87604 10.5659 3.37305 10.0689L3.0902 9.7861ZM3.0902 12.1516L3.84868 12.9101L4.13153 12.6272L3.37305 11.8687L3.0902 12.1516ZM3.84868 12.9101C4.5019 13.5633 5.56096 13.5633 6.21418 12.9101L5.93133 12.6272C5.43433 13.1242 4.62853 13.1242 4.13153 12.6272L3.84868 12.9101ZM6.21418 12.9101L8.11038 11.0139L7.82754 10.731L5.93133 12.6272L6.21418 12.9101ZM8.11038 11.0139C8.7636 10.3607 8.7636 9.30159 8.11038 8.64838L7.82754 8.93122C8.32454 9.42822 8.32454 10.234 7.82754 10.731L8.11038 11.0139ZM8.11038 8.64838L8.01876 8.55676L7.73592 8.8396L7.82754 8.93122L8.11038 8.64838ZM8.55703 7.73565L7.73592 8.55676L8.01876 8.8396L8.83987 8.01849L8.55703 7.73565ZM8.93146 7.82724L8.83987 7.73565L8.55703 8.01849L8.64862 8.11008L8.93146 7.82724ZM10.7313 7.82724C10.2343 8.32424 9.42847 8.32424 8.93146 7.82724L8.64862 8.11008C9.30183 8.76329 10.3609 8.76329 11.0141 8.11008L10.7313 7.82724ZM12.6275 5.93103L10.7313 7.82724L11.0141 8.11008L12.9103 6.21387L12.6275 5.93103ZM12.6275 4.13122C13.1245 4.62823 13.1245 5.43403 12.6275 5.93103L12.9103 6.21387C13.5635 5.56066 13.5635 4.50159 12.9103 3.84838L12.6275 4.13122ZM9.49724 7.26155L9.40561 7.16991L9.12277 7.45275L9.2144 7.54439L9.49724 7.26155ZM10.1657 7.26155C9.9811 7.44613 9.68183 7.44613 9.49725 7.26155L9.2144 7.54439C9.5552 7.88518 10.1077 7.88518 10.4485 7.54439L10.1657 7.26155ZM12.0619 5.36534L10.1657 7.26155L10.4485 7.54439L12.3447 5.64818L12.0619 5.36534ZM12.0619 4.6969C12.2465 4.88149 12.2465 5.18076 12.0619 5.36534L12.3447 5.64818C12.6855 5.30739 12.6855 4.75485 12.3447 4.41406L12.0619 4.6969ZM11.3034 3.93842L12.0619 4.6969L12.3447 4.41406L11.5862 3.65558L11.3034 3.93842ZM10.635 3.93842C10.8196 3.75384 11.1188 3.75384 11.3034 3.93842L11.5862 3.65558C11.2455 3.31479 10.6929 3.31479 10.3521 3.65558L10.635 3.93842ZM8.73876 5.83463L10.635 3.93842L10.3521 3.65558L8.45592 5.55178L8.73876 5.83463ZM8.73876 6.50306C8.55418 6.31848 8.55418 6.01921 8.73876 5.83463L8.45592 5.55178C8.11513 5.89258 8.11513 6.44511 8.45592 6.78591L8.73876 6.50306ZM8.83992 6.60422L8.73876 6.50306L8.45592 6.78591L8.55708 6.88707L8.83992 6.60422ZM8.83992 6.88707L9.46362 6.26337L9.18078 5.98053L8.55708 6.60422L8.83992 6.88707ZM9.46362 6.26337C9.55082 6.17617 9.66403 6.18094 9.74646 6.26337L10.0293 5.98053C9.80009 5.75131 9.43345 5.72786 9.18078 5.98053L9.46362 6.26337ZM9.74646 6.26337C9.82889 6.3458 9.83366 6.45901 9.74646 6.54622L10.0293 6.82906C10.282 6.57639 10.2585 6.20975 10.0293 5.98053L9.74646 6.26337ZM9.74646 6.54622L9.12277 7.16991L9.40561 7.45275L10.0293 6.82906L9.74646 6.54622ZM6.26362 9.46337L6.88736 8.83963L6.60452 8.55679L5.98078 9.18053L6.26362 9.46337ZM6.26362 9.74622C6.18119 9.66378 6.17642 9.55058 6.26362 9.46337L5.98077 9.18053C5.7281 9.4332 5.75156 9.79984 5.98078 10.0291L6.26362 9.74622ZM6.54646 9.74622C6.45926 9.83342 6.34605 9.82865 6.26362 9.74622L5.98078 10.0291C6.20999 10.2583 6.57663 10.2817 6.8293 10.0291L6.54646 9.74622ZM7.17021 9.12247L6.54646 9.74622L6.8293 10.0291L7.45305 9.40531L7.17021 9.12247ZM7.17021 9.40531L7.26179 9.4969L7.54463 9.21406L7.45305 9.12247L7.17021 9.40531ZM7.26179 9.4969C7.44637 9.68148 7.44637 9.98075 7.26179 10.1653L7.54463 10.4482C7.88543 10.1074 7.88543 9.55485 7.54463 9.21406L7.26179 9.4969ZM7.26179 10.1653L5.36558 12.0615L5.64843 12.3444L7.54463 10.4482L7.26179 10.1653ZM5.36558 12.0615C5.181 12.2461 4.88173 12.2461 4.69715 12.0615L4.41431 12.3444C4.7551 12.6852 5.30763 12.6852 5.64843 12.3444L5.36558 12.0615ZM4.69715 12.0615L3.93867 11.3031L3.65582 11.5859L4.41431 12.3444L4.69715 12.0615ZM3.93867 11.3031C3.75408 11.1185 3.75408 10.8192 3.93867 10.6346L3.65582 10.3518C3.31503 10.6926 3.31503 11.2451 3.65582 11.5859L3.93867 11.3031ZM3.93867 10.6346L5.83487 8.73842L5.55203 8.45557L3.65582 10.3518L3.93867 10.6346ZM5.83487 8.73842C6.01945 8.55383 6.31872 8.55383 6.50331 8.73842L6.78615 8.45557C6.44536 8.11478 5.89282 8.11478 5.55203 8.45557L5.83487 8.73842ZM6.50331 8.73842L6.60452 8.83963L6.88736 8.55679L6.78615 8.45557L6.50331 8.73842Z" fill="#8300B9" mask="url(#path-1-outside-1)"/>
</svg>
