<svg width="40" height="46" viewBox="0 0 40 46" fill="none" xmlns="http://www.w3.org/2000/svg">
<path fill-rule="evenodd" clip-rule="evenodd" d="M7.43698 0C3.32623 0 0 3.36269 0 7.50311V33.1514C0 36.483 2.15552 39.3178 5.14966 40.2929L5.15422 43.0791C5.15817 45.4896 7.90277 46.8642 9.81303 45.3949L15.976 40.6545H32.563C36.6738 40.6545 40 37.2918 40 33.1514V7.50311C40 3.36269 36.6738 0 32.563 0H7.43698ZM4.28571 7.50311C4.28571 5.73628 5.70103 4.31209 7.43697 4.31209H32.563C34.299 4.31209 35.7143 5.73628 35.7143 7.50311V33.1514C35.7143 34.9182 34.299 36.3424 32.563 36.3424H15.2507C14.7803 36.3424 14.323 36.4981 13.9493 36.7856L9.43532 40.2576L9.43243 38.4929C9.43052 37.3265 8.50712 36.3732 7.34836 36.3412C5.65091 36.2943 4.28571 34.8851 4.28571 33.1514V7.50311Z" fill="white"/>
</svg>
