<svg width="16" height="16" viewBox="0 0 16 16" fill="none" xmlns="http://www.w3.org/2000/svg">
<path fill-rule="evenodd" clip-rule="evenodd" d="M5.01537 6.15423V5.0565C5.01537 3.37025 6.36873 2 8.04231 2C9.71588 2 11.0692 3.37025 11.0692 5.0565V6.15423H11.926C12.413 6.15423 12.8 6.55377 12.8 7.03743V13.1168C12.8 13.6005 12.413 14 11.926 14H4.07401C3.58703 14 3.20001 13.6005 3.20001 13.1168V7.03743C3.20001 6.55377 3.58703 6.15423 4.07401 6.15423H5.01537ZM4.29369 7.24515V12.9091H11.7063V7.24515H4.29369ZM9.97557 6.13743V5.0565C9.97557 3.96913 9.10818 3.09092 8.0423 3.09092C6.97643 3.09092 6.10903 3.96913 6.10903 5.0565V6.13743H9.97557Z" fill="#8300B9"/>
<path fill-rule="evenodd" clip-rule="evenodd" d="M4.81536 5.95422V5.05648C4.81536 3.26177 6.25628 1.79999 8.0423 1.79999C9.82831 1.79999 11.2692 3.26177 11.2692 5.05648V5.95422H11.926C12.5266 5.95422 13 6.44653 13 7.03742V13.1168C13 13.7077 12.5266 14.2 11.926 14.2H4.074C3.47336 14.2 3 13.7077 3 13.1168V7.03742C3 6.44653 3.47336 5.95422 4.074 5.95422H4.81536ZM5.01536 5.05648C5.01536 3.37024 6.36872 1.99999 8.0423 1.99999C9.71587 1.99999 11.0692 3.37024 11.0692 5.05648V6.15422H11.926C12.413 6.15422 12.8 6.55375 12.8 7.03742V13.1168C12.8 13.6004 12.413 14 11.926 14H4.074C3.58702 14 3.2 13.6004 3.2 13.1168V7.03742C3.2 6.55375 3.58702 6.15422 4.074 6.15422H5.01536V5.05648ZM4.29368 12.9091V7.24513H11.7063V12.9091H4.29368ZM11.5063 12.7091V7.44513H4.49368V12.7091H11.5063ZM9.77556 5.93742V5.05649C9.77556 4.07668 8.99484 3.2909 8.04229 3.2909C7.08975 3.2909 6.30902 4.07668 6.30902 5.05649V5.93742H9.77556ZM9.97556 5.05649C9.97556 3.96912 9.10816 3.0909 8.04229 3.0909C6.97642 3.0909 6.10902 3.96912 6.10902 5.05649V6.13742H9.97556V5.05649Z" fill="#8300B9"/>
</svg>
