<svg width="24" height="24" viewBox="0 0 24 24" fill="none" xmlns="http://www.w3.org/2000/svg">
<path fill-rule="evenodd" clip-rule="evenodd" d="M11.5107 20.7589L10.6149 22.2173C10.5583 22.3095 10.4871 22.3919 10.404 22.4613C9.4933 23.2224 8.10211 23.1806 7.24575 22.362C6.79513 21.9312 6.5541 21.3373 6.59054 20.7865L6.58875 16.9382L2.18923 13.3602C1.7553 13.0073 1.42076 12.5477 1.21859 12.0264C0.574962 10.3671 1.401 8.50157 3.06213 7.85992L20.6339 1.07235C20.9741 0.940937 21.2949 0.998862 21.54 1.16304C21.8445 1.35808 22.0233 1.70741 21.9982 2.07282C21.9939 2.14262 21.9818 2.21276 21.9612 2.28218L17.1697 19.5442C16.6969 21.2474 14.9245 22.2453 13.2116 21.7801C12.78 21.6629 12.3777 21.4578 12.0302 21.1777L11.5107 20.7589ZM9.94083 19.4934L8.58855 18.4033L8.58858 20.8484C8.58761 20.8641 8.59674 20.8866 8.62777 20.9163C8.72162 21.006 8.89465 21.0291 9.02785 20.9798L9.94083 19.4934ZM9.11498 16.2587L13.2854 19.6206C13.4174 19.727 13.5708 19.8052 13.7358 19.85C14.3909 20.028 15.0652 19.6483 15.2426 19.0092L18.9416 5.68289L9.11498 16.2587ZM7.47949 15.0834L17.3165 4.49968L3.78324 9.72565C3.15244 9.96923 2.83969 10.6753 3.08322 11.303C3.15979 11.5003 3.28661 11.6745 3.45127 11.8084L7.47949 15.0834Z" fill="white"/>
</svg>
