<svg width="48" height="48" viewBox="0 0 48 48" fill="none" xmlns="http://www.w3.org/2000/svg">
<path fill-rule="evenodd" clip-rule="evenodd" d="M12 4H36C40.4183 4 44 7.58172 44 12V36C44 40.4183 40.4183 44 36 44H12C7.58172 44 4 40.4183 4 36V12C4 7.58172 7.58172 4 12 4ZM12 8C9.79086 8 8 9.79086 8 12V36C8 38.2091 9.79086 40 12 40H36C38.2091 40 40 38.2091 40 36V12C40 9.79086 38.2091 8 36 8H12ZM15.4142 12.5858L16 13.1716L18.5858 10.5858C19.3668 9.80474 20.6332 9.80474 21.4142 10.5858C22.1953 11.3668 22.1953 12.6332 21.4142 13.4142L17.4142 17.4142C16.6332 18.1953 15.3668 18.1953 14.5858 17.4142L12.5858 15.4142C11.8047 14.6332 11.8047 13.3668 12.5858 12.5858C13.3668 11.8047 14.6332 11.8047 15.4142 12.5858ZM25.9975 16C24.8929 15.9986 23.9986 15.1021 24 13.9975C24.0014 12.8929 24.8979 11.9986 26.0025 12L33.9651 12.0099C35.0697 12.0113 35.964 12.9078 35.9626 14.0124C35.9613 15.1169 35.0647 16.0113 33.9602 16.0099L25.9975 16ZM25.9975 26C24.8929 25.9986 23.9986 25.1021 24 23.9975C24.0014 22.8929 24.8979 21.9986 26.0025 22L33.9651 22.0099C35.0697 22.0113 35.964 22.9078 35.9626 24.0124C35.9613 25.1169 35.0647 26.0113 33.9602 26.0099L25.9975 26ZM25.9975 36C24.8929 35.9986 23.9986 35.1021 24 33.9975C24.0014 32.8929 24.8979 31.9986 26.0025 32L33.9651 32.0099C35.0697 32.0113 35.964 32.9078 35.9626 34.0124C35.9613 35.1169 35.0647 36.0113 33.9602 36.0099L25.9975 36ZM15.4142 22.5858L16 23.1716L18.5858 20.5858C19.3668 19.8047 20.6332 19.8047 21.4142 20.5858C22.1953 21.3668 22.1953 22.6332 21.4142 23.4142L17.4142 27.4142C16.6332 28.1953 15.3668 28.1953 14.5858 27.4142L12.5858 25.4142C11.8047 24.6332 11.8047 23.3668 12.5858 22.5858C13.3668 21.8047 14.6332 21.8047 15.4142 22.5858ZM15.4142 32.5858L16 33.1716L18.5858 30.5858C19.3668 29.8047 20.6332 29.8047 21.4142 30.5858C22.1953 31.3668 22.1953 32.6332 21.4142 33.4142L17.4142 37.4142C16.6332 38.1953 15.3668 38.1953 14.5858 37.4142L12.5858 35.4142C11.8047 34.6332 11.8047 33.3668 12.5858 32.5858C13.3668 31.8047 14.6332 31.8047 15.4142 32.5858Z" fill="#FFA372"/>
</svg>
