<svg width="158" height="67" viewBox="0 0 158 67" fill="none" xmlns="http://www.w3.org/2000/svg">
<path d="M46.582 0V5.82844H26.8937V57.6815H19.7897V5.82844H0V0H46.582Z" fill="white"/>
<path d="M148.339 57.6145L125.504 32.9943V57.6145H118.4V0H125.504V27.2664L148.054 0H158L131.492 30.0801L157.98 57.6145H148.339Z" fill="white"/>
<path fill-rule="evenodd" clip-rule="evenodd" d="M63.8639 0C57.78 0 52.8572 4.89783 52.8572 10.9284V48.2857C52.8572 53.1383 56.0474 57.2672 60.4787 58.6874L60.4855 62.7456C60.4914 66.2566 64.5534 68.2587 67.3806 66.1186L76.5017 59.2141H101.051C107.135 59.2141 112.057 54.3163 112.057 48.2857V10.9284C112.057 4.89783 107.135 0 101.051 0H63.8639ZM59.2001 10.9284C59.2001 8.35502 61.2947 6.28065 63.8639 6.28065H101.051C103.62 6.28065 105.714 8.35502 105.714 10.9284V48.2857C105.714 50.8591 103.62 52.9335 101.051 52.9335H75.4283C74.7321 52.9335 74.0552 53.1603 73.5021 53.579L66.8215 58.6361L66.8173 56.0657C66.8145 54.3669 65.4478 52.9783 63.7328 52.9317C61.2206 52.8635 59.2001 50.8109 59.2001 48.2857V10.9284Z" fill="white"/>
</svg>
