<svg width="16" height="16" viewBox="0 0 16 16" fill="none" xmlns="http://www.w3.org/2000/svg">
<path fill-rule="evenodd" clip-rule="evenodd" d="M4.84615 5.21569C4.84615 3.43971 6.25818 2 8 2C9.74182 2 11.1538 3.43971 11.1538 5.21569C11.1538 6.33083 10.5971 7.3134 9.75162 7.89022C11.6491 8.61394 13 10.4795 13 12.6667V14H3V12.6667C3 10.4795 4.3509 8.61394 6.24838 7.89022C5.40287 7.3134 4.84615 6.33083 4.84615 5.21569ZM7.99999 7.0196C8.97711 7.0196 9.76922 6.21195 9.76922 5.21568C9.76922 4.2194 8.97711 3.41176 7.99999 3.41176C7.02287 3.41176 6.23076 4.2194 6.23076 5.21568C6.23076 6.21195 7.02287 7.0196 7.99999 7.0196ZM8 8.98035C6.02898 8.98035 4.42635 10.5885 4.38542 12.5882H11.6146C11.5736 10.5885 9.97102 8.98035 8 8.98035Z" fill="#8300B9"/>
</svg>
